<?xml version="1.0" encoding="UTF-8" standalone="no"?>
<!DOCTYPE svg PUBLIC "-//W3C//DTD SVG 1.1//EN"
 "http://www.w3.org/Graphics/SVG/1.1/DTD/svg11.dtd">
<!-- Generated by graphviz version 2.40.1 (20161225.0304)
 -->
<!-- Title: dependencies Pages: 1 -->
<svg width="602pt" height="352pt"
 viewBox="0.00 0.00 602.00 352.00" xmlns="http://www.w3.org/2000/svg" xmlns:xlink="http://www.w3.org/1999/xlink">
<g id="graph0" class="graph" transform="scale(1 1) rotate(0) translate(4 348)">
<title>dependencies</title>
<polygon fill="#ffffff" stroke="transparent" points="-4,4 -4,-348 598,-348 598,4 -4,4"/>
<text text-anchor="start" x="276.0091" y="-42.4" font-family="sans-serif" font-weight="bold" font-size="14.00" fill="#000000">Legend</text>
<polygon fill="#ffffb3" stroke="transparent" points="63,-10 63,-30 83,-30 83,-10 63,-10"/>
<text text-anchor="start" x="86.629" y="-15.4" font-family="sans-serif" font-size="14.00" fill="#000000"> &#160;Declarations</text>
<polygon fill="#8dd3c7" stroke="transparent" points="176,-10 176,-30 196,-30 196,-10 176,-10"/>
<text text-anchor="start" x="199.7251" y="-15.4" font-family="sans-serif" font-size="14.00" fill="#000000"> &#160;Module</text>
<polygon fill="#80b1d3" stroke="transparent" points="262,-10 262,-30 282,-30 282,-10 262,-10"/>
<text text-anchor="start" x="285.7812" y="-15.4" font-family="sans-serif" font-size="14.00" fill="#000000"> &#160;Bootstrap</text>
<polygon fill="#fdb462" stroke="transparent" points="359,-10 359,-30 379,-30 379,-10 359,-10"/>
<text text-anchor="start" x="382.6732" y="-15.4" font-family="sans-serif" font-size="14.00" fill="#000000"> &#160;Providers</text>
<polygon fill="#fb8072" stroke="transparent" points="455,-10 455,-30 475,-30 475,-10 455,-10"/>
<text text-anchor="start" x="478.7258" y="-15.4" font-family="sans-serif" font-size="14.00" fill="#000000"> &#160;Exports</text>
<g id="clust1" class="cluster">
<title>cluster_CloukitDropoutModule</title>
<polygon fill="none" stroke="#000000" stroke-dasharray="1,5" points="8,-70 8,-268 426,-268 426,-70 8,-70"/>
</g>
<g id="clust3" class="cluster">
<title>cluster_CloukitDropoutModule_imports</title>
<polygon fill="none" stroke="#000000" points="284,-78 284,-130 412,-130 412,-78 284,-78"/>
</g>
<g id="clust4" class="cluster">
<title>cluster_CloukitDropoutModule_exports</title>
<polygon fill="none" stroke="#000000" points="16,-208 16,-260 418,-260 418,-208 16,-208"/>
</g>
<g id="clust7" class="cluster">
<title>cluster_DemoModule</title>
<polygon fill="none" stroke="#000000" stroke-dasharray="1,5" points="434,-208 434,-336 586,-336 586,-208 434,-208"/>
</g>
<g id="clust10" class="cluster">
<title>cluster_DemoModule_exports</title>
<polygon fill="none" stroke="#000000" points="442,-276 442,-328 578,-328 578,-276 442,-276"/>
</g>
<!-- CommonModule -->
<g id="node1" class="node">
<title>CommonModule</title>
<polygon fill="#8dd3c7" stroke="#000000" points="403.6681,-122 400.6681,-126 379.6681,-126 376.6681,-122 292.3319,-122 292.3319,-86 403.6681,-86 403.6681,-122"/>
<text text-anchor="middle" x="348" y="-99.8" font-family="Times,serif" font-size="14.00" fill="#000000">CommonModule</text>
</g>
<!-- CloukitDropoutModule -->
<g id="node2" class="node">
<title>CloukitDropoutModule</title>
<polygon fill="#8dd3c7" stroke="#000000" points="410.2162,-187 407.2162,-191 386.2162,-191 383.2162,-187 261.7838,-187 261.7838,-151 410.2162,-151 410.2162,-187"/>
<text text-anchor="middle" x="336" y="-164.8" font-family="Times,serif" font-size="14.00" fill="#000000">CloukitDropoutModule</text>
</g>
<!-- CommonModule&#45;&gt;CloukitDropoutModule -->
<g id="edge1" class="edge">
<title>CommonModule&#45;&gt;CloukitDropoutModule</title>
<path fill="none" stroke="#000000" d="M348,-122.1061C348,-122.1061 348,-140.991 348,-140.991"/>
<polygon fill="#000000" stroke="#000000" points="344.5001,-140.9909 348,-150.991 351.5001,-140.991 344.5001,-140.9909"/>
</g>
<!-- DemoModule -->
<g id="node5" class="node">
<title>DemoModule</title>
<polygon fill="#8dd3c7" stroke="#000000" points="535.7619,-252 532.7619,-256 511.7619,-256 508.7619,-252 442.2381,-252 442.2381,-216 535.7619,-216 535.7619,-252"/>
<text text-anchor="middle" x="489" y="-229.8" font-family="Times,serif" font-size="14.00" fill="#000000">DemoModule</text>
</g>
<!-- CommonModule&#45;&gt;DemoModule -->
<g id="edge4" class="edge">
<title>CommonModule&#45;&gt;DemoModule</title>
<path fill="none" stroke="#000000" d="M404.1035,-104C449.046,-104 504.6269,-104 504.6269,-104 504.6269,-104 504.6269,-205.9241 504.6269,-205.9241"/>
<polygon fill="#000000" stroke="#000000" points="501.127,-205.924 504.6269,-215.9241 508.127,-205.9241 501.127,-205.924"/>
</g>
<!-- CloukitDropoutDirective  -->
<g id="node3" class="node">
<title>CloukitDropoutDirective </title>
<polygon fill="#fb8072" stroke="#000000" points="410.2492,-252 249.7508,-252 249.7508,-216 410.2492,-216 410.2492,-252"/>
<text text-anchor="middle" x="330" y="-229.8" font-family="Times,serif" font-size="14.00" fill="#000000">CloukitDropoutDirective </text>
</g>
<!-- CloukitDropoutModule&#45;&gt;CloukitDropoutDirective  -->
<g id="edge2" class="edge">
<title>CloukitDropoutModule&#45;&gt;CloukitDropoutDirective </title>
<path fill="none" stroke="#000000" stroke-dasharray="5,2" d="M336,-187.1061C336,-187.1061 336,-205.991 336,-205.991"/>
<polygon fill="#000000" stroke="#000000" points="332.5001,-205.9909 336,-215.991 339.5001,-205.991 332.5001,-205.9909"/>
</g>
<!-- CloukitDropoutOutletComponent  -->
<g id="node4" class="node">
<title>CloukitDropoutOutletComponent </title>
<polygon fill="#fb8072" stroke="#000000" points="232.4922,-252 23.5078,-252 23.5078,-216 232.4922,-216 232.4922,-252"/>
<text text-anchor="middle" x="128" y="-229.8" font-family="Times,serif" font-size="14.00" fill="#000000">CloukitDropoutOutletComponent </text>
</g>
<!-- CloukitDropoutModule&#45;&gt;CloukitDropoutOutletComponent  -->
<g id="edge3" class="edge">
<title>CloukitDropoutModule&#45;&gt;CloukitDropoutOutletComponent </title>
<path fill="none" stroke="#000000" stroke-dasharray="5,2" d="M261.7881,-169C202.0535,-169 128,-169 128,-169 128,-169 128,-205.8939 128,-205.8939"/>
<polygon fill="#000000" stroke="#000000" points="124.5001,-205.8938 128,-215.8939 131.5001,-205.8939 124.5001,-205.8938"/>
</g>
<!-- CloukitDropoutModule&#45;&gt;DemoModule -->
<g id="edge5" class="edge">
<title>CloukitDropoutModule&#45;&gt;DemoModule</title>
<path fill="none" stroke="#000000" d="M410.3154,-169C442.6834,-169 473.3731,-169 473.3731,-169 473.3731,-169 473.3731,-205.8939 473.3731,-205.8939"/>
<polygon fill="#000000" stroke="#000000" points="469.8732,-205.8938 473.3731,-215.8939 476.8732,-205.8939 469.8732,-205.8938"/>
</g>
<!-- DemoComponent  -->
<g id="node6" class="node">
<title>DemoComponent </title>
<polygon fill="#fb8072" stroke="#000000" points="569.5442,-320 450.4558,-320 450.4558,-284 569.5442,-284 569.5442,-320"/>
<text text-anchor="middle" x="510" y="-297.8" font-family="Times,serif" font-size="14.00" fill="#000000">DemoComponent </text>
</g>
<!-- DemoModule&#45;&gt;DemoComponent  -->
<g id="edge6" class="edge">
<title>DemoModule&#45;&gt;DemoComponent </title>
<path fill="none" stroke="#000000" stroke-dasharray="5,2" d="M493.1794,-252.2228C493.1794,-252.2228 493.1794,-273.7269 493.1794,-273.7269"/>
<polygon fill="#000000" stroke="#000000" points="489.6794,-273.7269 493.1794,-283.7269 496.6794,-273.727 489.6794,-273.7269"/>
</g>
</g>
</svg>
