<?xml version="1.0" encoding="UTF-8" standalone="no"?>
<!DOCTYPE svg PUBLIC "-//W3C//DTD SVG 1.1//EN"
 "http://www.w3.org/Graphics/SVG/1.1/DTD/svg11.dtd">
<!-- Generated by graphviz version 2.40.1 (20161225.0304)
 -->
<!-- Title: dependencies Pages: 1 -->
<svg width="982pt" height="284pt"
 viewBox="0.00 0.00 982.00 284.00" xmlns="http://www.w3.org/2000/svg" xmlns:xlink="http://www.w3.org/1999/xlink">
<g id="graph0" class="graph" transform="scale(1 1) rotate(0) translate(4 280)">
<title>dependencies</title>
<polygon fill="#ffffff" stroke="transparent" points="-4,4 -4,-280 978,-280 978,4 -4,4"/>
<text text-anchor="start" x="466.0091" y="-42.4" font-family="sans-serif" font-weight="bold" font-size="14.00" fill="#000000">Legend</text>
<polygon fill="#ffffb3" stroke="transparent" points="253,-10 253,-30 273,-30 273,-10 253,-10"/>
<text text-anchor="start" x="276.629" y="-15.4" font-family="sans-serif" font-size="14.00" fill="#000000"> &#160;Declarations</text>
<polygon fill="#8dd3c7" stroke="transparent" points="366,-10 366,-30 386,-30 386,-10 366,-10"/>
<text text-anchor="start" x="389.7251" y="-15.4" font-family="sans-serif" font-size="14.00" fill="#000000"> &#160;Module</text>
<polygon fill="#80b1d3" stroke="transparent" points="452,-10 452,-30 472,-30 472,-10 452,-10"/>
<text text-anchor="start" x="475.7812" y="-15.4" font-family="sans-serif" font-size="14.00" fill="#000000"> &#160;Bootstrap</text>
<polygon fill="#fdb462" stroke="transparent" points="549,-10 549,-30 569,-30 569,-10 549,-10"/>
<text text-anchor="start" x="572.6732" y="-15.4" font-family="sans-serif" font-size="14.00" fill="#000000"> &#160;Providers</text>
<polygon fill="#fb8072" stroke="transparent" points="645,-10 645,-30 665,-30 665,-10 645,-10"/>
<text text-anchor="start" x="668.7258" y="-15.4" font-family="sans-serif" font-size="14.00" fill="#000000"> &#160;Exports</text>
<g id="clust1" class="cluster">
<title>cluster_CloukitDropoutModule</title>
<polygon fill="none" stroke="#000000" stroke-dasharray="1,5" points="8,-70 8,-268 966,-268 966,-70 8,-70"/>
</g>
<g id="clust2" class="cluster">
<title>cluster_CloukitDropoutModule_declarations</title>
<polygon fill="none" stroke="#000000" points="320,-78 320,-130 958,-130 958,-78 320,-78"/>
</g>
<g id="clust6" class="cluster">
<title>cluster_CloukitDropoutModule_imports</title>
<polygon fill="none" stroke="#000000" points="184,-78 184,-130 312,-130 312,-78 184,-78"/>
</g>
<g id="clust7" class="cluster">
<title>cluster_CloukitDropoutModule_exports</title>
<polygon fill="none" stroke="#000000" points="217,-208 217,-260 619,-260 619,-208 217,-208"/>
</g>
<g id="clust9" class="cluster">
<title>cluster_CloukitDropoutModule_providers</title>
<polygon fill="none" stroke="#000000" points="16,-78 16,-130 176,-130 176,-78 16,-78"/>
</g>
<!-- CloukitDropoutDirective -->
<g id="node1" class="node">
<title>CloukitDropoutDirective</title>
<polygon fill="#ffffb3" stroke="#000000" points="950.2492,-122 793.7508,-122 793.7508,-86 950.2492,-86 950.2492,-122"/>
<text text-anchor="middle" x="872" y="-99.8" font-family="Times,serif" font-size="14.00" fill="#000000">CloukitDropoutDirective</text>
</g>
<!-- CloukitDropoutModule -->
<g id="node4" class="node">
<title>CloukitDropoutModule</title>
<polygon fill="#8dd3c7" stroke="#000000" points="504.2162,-187 501.2162,-191 480.2162,-191 477.2162,-187 355.7838,-187 355.7838,-151 504.2162,-151 504.2162,-187"/>
<text text-anchor="middle" x="430" y="-164.8" font-family="Times,serif" font-size="14.00" fill="#000000">CloukitDropoutModule</text>
</g>
<!-- CloukitDropoutDirective&#45;&gt;CloukitDropoutModule -->
<g id="edge1" class="edge">
<title>CloukitDropoutDirective&#45;&gt;CloukitDropoutModule</title>
<path fill="none" stroke="#000000" d="M872,-122.2843C872,-143.3211 872,-175 872,-175 872,-175 514.4795,-175 514.4795,-175"/>
<polygon fill="#000000" stroke="#000000" points="514.4795,-171.5001 504.4795,-175 514.4794,-178.5001 514.4795,-171.5001"/>
</g>
<!-- CloukitDropoutContainerComponent -->
<g id="node2" class="node">
<title>CloukitDropoutContainerComponent</title>
<polygon fill="#ffffb3" stroke="#000000" points="775.7063,-122 550.2937,-122 550.2937,-86 775.7063,-86 775.7063,-122"/>
<text text-anchor="middle" x="663" y="-99.8" font-family="Times,serif" font-size="14.00" fill="#000000">CloukitDropoutContainerComponent</text>
</g>
<!-- CloukitDropoutContainerComponent&#45;&gt;CloukitDropoutModule -->
<g id="edge2" class="edge">
<title>CloukitDropoutContainerComponent&#45;&gt;CloukitDropoutModule</title>
<path fill="none" stroke="#000000" d="M580.7607,-122.0225C580.7607,-139.3734 580.7607,-163 580.7607,-163 580.7607,-163 514.497,-163 514.497,-163"/>
<polygon fill="#000000" stroke="#000000" points="514.497,-159.5001 504.497,-163 514.497,-166.5001 514.497,-159.5001"/>
</g>
<!-- CloukitDropoutOutletComponent -->
<g id="node3" class="node">
<title>CloukitDropoutOutletComponent</title>
<polygon fill="#ffffb3" stroke="#000000" points="532.4916,-122 327.5084,-122 327.5084,-86 532.4916,-86 532.4916,-122"/>
<text text-anchor="middle" x="430" y="-99.8" font-family="Times,serif" font-size="14.00" fill="#000000">CloukitDropoutOutletComponent</text>
</g>
<!-- CloukitDropoutOutletComponent&#45;&gt;CloukitDropoutModule -->
<g id="edge3" class="edge">
<title>CloukitDropoutOutletComponent&#45;&gt;CloukitDropoutModule</title>
<path fill="none" stroke="#000000" d="M430,-122.1061C430,-122.1061 430,-140.991 430,-140.991"/>
<polygon fill="#000000" stroke="#000000" points="426.5001,-140.9909 430,-150.991 433.5001,-140.991 426.5001,-140.9909"/>
</g>
<!-- CloukitDropoutDirective  -->
<g id="node6" class="node">
<title>CloukitDropoutDirective </title>
<polygon fill="#fb8072" stroke="#000000" points="611.2492,-252 450.7508,-252 450.7508,-216 611.2492,-216 611.2492,-252"/>
<text text-anchor="middle" x="531" y="-229.8" font-family="Times,serif" font-size="14.00" fill="#000000">CloukitDropoutDirective </text>
</g>
<!-- CloukitDropoutModule&#45;&gt;CloukitDropoutDirective  -->
<g id="edge5" class="edge">
<title>CloukitDropoutModule&#45;&gt;CloukitDropoutDirective </title>
<path fill="none" stroke="#000000" stroke-dasharray="5,2" d="M477.4918,-187.1061C477.4918,-187.1061 477.4918,-205.991 477.4918,-205.991"/>
<polygon fill="#000000" stroke="#000000" points="473.9918,-205.9909 477.4918,-215.991 480.9918,-205.991 473.9918,-205.9909"/>
</g>
<!-- CloukitDropoutOutletComponent  -->
<g id="node7" class="node">
<title>CloukitDropoutOutletComponent </title>
<polygon fill="#fb8072" stroke="#000000" points="433.4922,-252 224.5078,-252 224.5078,-216 433.4922,-216 433.4922,-252"/>
<text text-anchor="middle" x="329" y="-229.8" font-family="Times,serif" font-size="14.00" fill="#000000">CloukitDropoutOutletComponent </text>
</g>
<!-- CloukitDropoutModule&#45;&gt;CloukitDropoutOutletComponent  -->
<g id="edge6" class="edge">
<title>CloukitDropoutModule&#45;&gt;CloukitDropoutOutletComponent </title>
<path fill="none" stroke="#000000" stroke-dasharray="5,2" d="M394.5689,-187.1061C394.5689,-187.1061 394.5689,-205.991 394.5689,-205.991"/>
<polygon fill="#000000" stroke="#000000" points="391.069,-205.9909 394.5689,-215.991 398.069,-205.991 391.069,-205.9909"/>
</g>
<!-- CommonModule -->
<g id="node5" class="node">
<title>CommonModule</title>
<polygon fill="#8dd3c7" stroke="#000000" points="303.6681,-122 300.6681,-126 279.6681,-126 276.6681,-122 192.3319,-122 192.3319,-86 303.6681,-86 303.6681,-122"/>
<text text-anchor="middle" x="248" y="-99.8" font-family="Times,serif" font-size="14.00" fill="#000000">CommonModule</text>
</g>
<!-- CommonModule&#45;&gt;CloukitDropoutModule -->
<g id="edge4" class="edge">
<title>CommonModule&#45;&gt;CloukitDropoutModule</title>
<path fill="none" stroke="#000000" d="M264.294,-122.0225C264.294,-139.3734 264.294,-163 264.294,-163 264.294,-163 345.871,-163 345.871,-163"/>
<polygon fill="#000000" stroke="#000000" points="345.871,-166.5001 355.871,-163 345.871,-159.5001 345.871,-166.5001"/>
</g>
<!-- DropoutService -->
<g id="node8" class="node">
<title>DropoutService</title>
<ellipse fill="#fdb462" stroke="#000000" cx="96" cy="-104" rx="72.3516" ry="18"/>
<text text-anchor="middle" x="96" y="-99.8" font-family="Times,serif" font-size="14.00" fill="#000000">DropoutService</text>
</g>
<!-- DropoutService&#45;&gt;CloukitDropoutModule -->
<g id="edge7" class="edge">
<title>DropoutService&#45;&gt;CloukitDropoutModule</title>
<path fill="none" stroke="#000000" d="M96,-122.2843C96,-143.3211 96,-175 96,-175 96,-175 345.8746,-175 345.8746,-175"/>
<polygon fill="#000000" stroke="#000000" points="345.8746,-178.5001 355.8746,-175 345.8745,-171.5001 345.8746,-178.5001"/>
</g>
</g>
</svg>
