<?xml version="1.0" encoding="UTF-8" standalone="no"?>
<!DOCTYPE svg PUBLIC "-//W3C//DTD SVG 1.1//EN"
 "http://www.w3.org/Graphics/SVG/1.1/DTD/svg11.dtd">
<!-- Generated by graphviz version 2.40.1 (20161225.0304)
 -->
<!-- Title: dependencies Pages: 1 -->
<svg width="1040pt" height="284pt"
 viewBox="0.00 0.00 1040.00 284.00" xmlns="http://www.w3.org/2000/svg" xmlns:xlink="http://www.w3.org/1999/xlink">
<g id="graph0" class="graph" transform="scale(1 1) rotate(0) translate(4 280)">
<title>dependencies</title>
<polygon fill="#ffffff" stroke="transparent" points="-4,4 -4,-280 1036,-280 1036,4 -4,4"/>
<text text-anchor="start" x="495.0091" y="-42.4" font-family="sans-serif" font-weight="bold" font-size="14.00" fill="#000000">Legend</text>
<polygon fill="#ffffb3" stroke="transparent" points="282,-10 282,-30 302,-30 302,-10 282,-10"/>
<text text-anchor="start" x="305.629" y="-15.4" font-family="sans-serif" font-size="14.00" fill="#000000"> &#160;Declarations</text>
<polygon fill="#8dd3c7" stroke="transparent" points="395,-10 395,-30 415,-30 415,-10 395,-10"/>
<text text-anchor="start" x="418.7251" y="-15.4" font-family="sans-serif" font-size="14.00" fill="#000000"> &#160;Module</text>
<polygon fill="#80b1d3" stroke="transparent" points="481,-10 481,-30 501,-30 501,-10 481,-10"/>
<text text-anchor="start" x="504.7812" y="-15.4" font-family="sans-serif" font-size="14.00" fill="#000000"> &#160;Bootstrap</text>
<polygon fill="#fdb462" stroke="transparent" points="578,-10 578,-30 598,-30 598,-10 578,-10"/>
<text text-anchor="start" x="601.6732" y="-15.4" font-family="sans-serif" font-size="14.00" fill="#000000"> &#160;Providers</text>
<polygon fill="#fb8072" stroke="transparent" points="674,-10 674,-30 694,-30 694,-10 674,-10"/>
<text text-anchor="start" x="697.7258" y="-15.4" font-family="sans-serif" font-size="14.00" fill="#000000"> &#160;Exports</text>
<g id="clust1" class="cluster">
<title>cluster_CloukitDropoutModule</title>
<polygon fill="none" stroke="#000000" stroke-dasharray="1,5" points="8,-70 8,-268 1024,-268 1024,-70 8,-70"/>
</g>
<g id="clust2" class="cluster">
<title>cluster_CloukitDropoutModule_declarations</title>
<polygon fill="none" stroke="#000000" points="378,-78 378,-130 1016,-130 1016,-78 378,-78"/>
</g>
<g id="clust6" class="cluster">
<title>cluster_CloukitDropoutModule_imports</title>
<polygon fill="none" stroke="#000000" points="242,-78 242,-130 370,-130 370,-78 242,-78"/>
</g>
<g id="clust7" class="cluster">
<title>cluster_CloukitDropoutModule_exports</title>
<polygon fill="none" stroke="#000000" points="275,-208 275,-260 677,-260 677,-208 275,-208"/>
</g>
<g id="clust9" class="cluster">
<title>cluster_CloukitDropoutModule_providers</title>
<polygon fill="none" stroke="#000000" points="16,-78 16,-130 234,-130 234,-78 16,-78"/>
</g>
<!-- CloukitDropoutDirective -->
<g id="node1" class="node">
<title>CloukitDropoutDirective</title>
<polygon fill="#ffffb3" stroke="#000000" points="1008.2492,-122 851.7508,-122 851.7508,-86 1008.2492,-86 1008.2492,-122"/>
<text text-anchor="middle" x="930" y="-99.8" font-family="Times,serif" font-size="14.00" fill="#000000">CloukitDropoutDirective</text>
</g>
<!-- CloukitDropoutModule -->
<g id="node4" class="node">
<title>CloukitDropoutModule</title>
<polygon fill="#8dd3c7" stroke="#000000" points="562.2162,-187 559.2162,-191 538.2162,-191 535.2162,-187 413.7838,-187 413.7838,-151 562.2162,-151 562.2162,-187"/>
<text text-anchor="middle" x="488" y="-164.8" font-family="Times,serif" font-size="14.00" fill="#000000">CloukitDropoutModule</text>
</g>
<!-- CloukitDropoutDirective&#45;&gt;CloukitDropoutModule -->
<g id="edge1" class="edge">
<title>CloukitDropoutDirective&#45;&gt;CloukitDropoutModule</title>
<path fill="none" stroke="#000000" d="M930,-122.2843C930,-143.3211 930,-175 930,-175 930,-175 572.4795,-175 572.4795,-175"/>
<polygon fill="#000000" stroke="#000000" points="572.4795,-171.5001 562.4795,-175 572.4794,-178.5001 572.4795,-171.5001"/>
</g>
<!-- CloukitDropoutContainerComponent -->
<g id="node2" class="node">
<title>CloukitDropoutContainerComponent</title>
<polygon fill="#ffffb3" stroke="#000000" points="833.7063,-122 608.2937,-122 608.2937,-86 833.7063,-86 833.7063,-122"/>
<text text-anchor="middle" x="721" y="-99.8" font-family="Times,serif" font-size="14.00" fill="#000000">CloukitDropoutContainerComponent</text>
</g>
<!-- CloukitDropoutContainerComponent&#45;&gt;CloukitDropoutModule -->
<g id="edge2" class="edge">
<title>CloukitDropoutContainerComponent&#45;&gt;CloukitDropoutModule</title>
<path fill="none" stroke="#000000" d="M638.7607,-122.0225C638.7607,-139.3734 638.7607,-163 638.7607,-163 638.7607,-163 572.497,-163 572.497,-163"/>
<polygon fill="#000000" stroke="#000000" points="572.497,-159.5001 562.497,-163 572.497,-166.5001 572.497,-159.5001"/>
</g>
<!-- CloukitDropoutOutletComponent -->
<g id="node3" class="node">
<title>CloukitDropoutOutletComponent</title>
<polygon fill="#ffffb3" stroke="#000000" points="590.4916,-122 385.5084,-122 385.5084,-86 590.4916,-86 590.4916,-122"/>
<text text-anchor="middle" x="488" y="-99.8" font-family="Times,serif" font-size="14.00" fill="#000000">CloukitDropoutOutletComponent</text>
</g>
<!-- CloukitDropoutOutletComponent&#45;&gt;CloukitDropoutModule -->
<g id="edge3" class="edge">
<title>CloukitDropoutOutletComponent&#45;&gt;CloukitDropoutModule</title>
<path fill="none" stroke="#000000" d="M488,-122.1061C488,-122.1061 488,-140.991 488,-140.991"/>
<polygon fill="#000000" stroke="#000000" points="484.5001,-140.9909 488,-150.991 491.5001,-140.991 484.5001,-140.9909"/>
</g>
<!-- CloukitDropoutDirective  -->
<g id="node6" class="node">
<title>CloukitDropoutDirective </title>
<polygon fill="#fb8072" stroke="#000000" points="669.2492,-252 508.7508,-252 508.7508,-216 669.2492,-216 669.2492,-252"/>
<text text-anchor="middle" x="589" y="-229.8" font-family="Times,serif" font-size="14.00" fill="#000000">CloukitDropoutDirective </text>
</g>
<!-- CloukitDropoutModule&#45;&gt;CloukitDropoutDirective  -->
<g id="edge5" class="edge">
<title>CloukitDropoutModule&#45;&gt;CloukitDropoutDirective </title>
<path fill="none" stroke="#000000" stroke-dasharray="5,2" d="M535.4918,-187.1061C535.4918,-187.1061 535.4918,-205.991 535.4918,-205.991"/>
<polygon fill="#000000" stroke="#000000" points="531.9918,-205.9909 535.4918,-215.991 538.9918,-205.991 531.9918,-205.9909"/>
</g>
<!-- CloukitDropoutOutletComponent  -->
<g id="node7" class="node">
<title>CloukitDropoutOutletComponent </title>
<polygon fill="#fb8072" stroke="#000000" points="491.4922,-252 282.5078,-252 282.5078,-216 491.4922,-216 491.4922,-252"/>
<text text-anchor="middle" x="387" y="-229.8" font-family="Times,serif" font-size="14.00" fill="#000000">CloukitDropoutOutletComponent </text>
</g>
<!-- CloukitDropoutModule&#45;&gt;CloukitDropoutOutletComponent  -->
<g id="edge6" class="edge">
<title>CloukitDropoutModule&#45;&gt;CloukitDropoutOutletComponent </title>
<path fill="none" stroke="#000000" stroke-dasharray="5,2" d="M452.5689,-187.1061C452.5689,-187.1061 452.5689,-205.991 452.5689,-205.991"/>
<polygon fill="#000000" stroke="#000000" points="449.069,-205.9909 452.5689,-215.991 456.069,-205.991 449.069,-205.9909"/>
</g>
<!-- CommonModule -->
<g id="node5" class="node">
<title>CommonModule</title>
<polygon fill="#8dd3c7" stroke="#000000" points="361.6681,-122 358.6681,-126 337.6681,-126 334.6681,-122 250.3319,-122 250.3319,-86 361.6681,-86 361.6681,-122"/>
<text text-anchor="middle" x="306" y="-99.8" font-family="Times,serif" font-size="14.00" fill="#000000">CommonModule</text>
</g>
<!-- CommonModule&#45;&gt;CloukitDropoutModule -->
<g id="edge4" class="edge">
<title>CommonModule&#45;&gt;CloukitDropoutModule</title>
<path fill="none" stroke="#000000" d="M322.294,-122.0225C322.294,-139.3734 322.294,-163 322.294,-163 322.294,-163 403.871,-163 403.871,-163"/>
<polygon fill="#000000" stroke="#000000" points="403.871,-166.5001 413.871,-163 403.871,-159.5001 403.871,-166.5001"/>
</g>
<!-- CloukitDropoutService -->
<g id="node8" class="node">
<title>CloukitDropoutService</title>
<ellipse fill="#fdb462" stroke="#000000" cx="125" cy="-104" rx="101.3047" ry="18"/>
<text text-anchor="middle" x="125" y="-99.8" font-family="Times,serif" font-size="14.00" fill="#000000">CloukitDropoutService</text>
</g>
<!-- CloukitDropoutService&#45;&gt;CloukitDropoutModule -->
<g id="edge7" class="edge">
<title>CloukitDropoutService&#45;&gt;CloukitDropoutModule</title>
<path fill="none" stroke="#000000" d="M125,-122.2843C125,-143.3211 125,-175 125,-175 125,-175 403.6656,-175 403.6656,-175"/>
<polygon fill="#000000" stroke="#000000" points="403.6656,-178.5001 413.6656,-175 403.6656,-171.5001 403.6656,-178.5001"/>
</g>
</g>
</svg>
