<!--
  * @license MIT
  * Copyright (c) 2017 Bernhard Grünewaldt - codeclou.io
  * https://github.com/cloukit/legal
-->
<svg width="802" height="1600" viewBox="0 0 802 1600" xmlns="http://www.w3.org/2000/svg" style="background:#fff">
  <title>
    cloukit-dropout-positioning
  </title>
  <defs>
    <style type="text/css">@import url(https://cloukit.github.io/cdn-static/css/webfonts.css);</style>
  </defs>
  <g fill="none" fill-rule="evenodd"><path stroke="#777" d="M15.5 17.329h768V1582.5h-768z"/><text font-family="SourceSansPro-Light, Source Sans Pro" font-size="18" font-weight="300" letter-spacing="-1" fill="#710ECC"><tspan x="292" y="135">UP_LEFT</tspan></text><text font-family="SourceSansPro-Light, Source Sans Pro" font-size="18" font-weight="300" letter-spacing="-1" fill="#710ECC"><tspan x="53" y="135">DOWN_LEFT</tspan></text><text font-family="SourceSansPro-Light, Source Sans Pro" font-size="30" font-weight="300" letter-spacing=".333" fill="#710ECC"><tspan x="53" y="72">Dropout Component Positioning</tspan></text><path fill="#710ECC" d="M346 264h41v17h-41z"/><path fill="#A4E2FD" d="M346 202h118v62H346z"/><g transform="translate(54 151)"><path stroke="#979797" stroke-width="2" d="M1 18h210v139H1z"/><path fill="#979797" d="M0 0h212v19H0z"/><circle fill="silver" transform="rotate(-1 11 9)" cx="11" cy="9" r="6"/><circle fill="silver" transform="rotate(-1 26 9)" cx="26" cy="9" r="6"/><circle fill="silver" transform="rotate(-1 41 9)" cx="41" cy="9" r="6"/></g><g transform="translate(293 151)"><path stroke="#979797" stroke-width="2" d="M1 18h210v139H1z"/><path fill="#979797" d="M0 0h212v19H0z"/><circle fill="silver" transform="rotate(-1 11 9)" cx="11" cy="9" r="6"/><circle fill="silver" transform="rotate(-1 26 9)" cx="26" cy="9" r="6"/><circle fill="silver" transform="rotate(-1 41 9)" cx="41" cy="9" r="6"/></g><g transform="translate(532 151)"><path stroke="#979797" stroke-width="2" d="M1 18h210v139H1z"/><path fill="#979797" d="M0 0h212v19H0z"/><circle fill="silver" transform="rotate(-1 11 9)" cx="11" cy="9" r="6"/><circle fill="silver" transform="rotate(-1 26 9)" cx="26" cy="9" r="6"/><circle fill="silver" transform="rotate(-1 41 9)" cx="41" cy="9" r="6"/></g><path fill="#710ECC" d="M592 176h41v17h-41z"/><text font-family="SourceSansPro-Light, Source Sans Pro" font-size="18" font-weight="300" letter-spacing="-1" fill="#710ECC"><tspan x="532" y="135">VAUTO_LEFT</tspan></text><path fill="#A4E2FD" d="M592 193h93v38h-93z"/><path fill="#710ECC" d="M101 198h41v17h-41z"/><path fill="#A4E2FD" d="M101 215h118v62H101z"/><g transform="translate(54 358)"><path stroke="#979797" stroke-width="2" d="M1 18h210v139H1z"/><path fill="#979797" d="M0 0h212v19H0z"/><circle fill="silver" transform="rotate(-1 11 9)" cx="11" cy="9" r="6"/><circle fill="silver" transform="rotate(-1 26 9)" cx="26" cy="9" r="6"/><circle fill="silver" transform="rotate(-1 41 9)" cx="41" cy="9" r="6"/></g><g transform="translate(293 359)"><path stroke="#979797" stroke-width="2" d="M1 18h210v139H1z"/><path fill="#979797" d="M0 0h212v19H0z"/><circle fill="silver" transform="rotate(-1 11 9)" cx="11" cy="9" r="6"/><circle fill="silver" transform="rotate(-1 26 9)" cx="26" cy="9" r="6"/><circle fill="silver" transform="rotate(-1 41 9)" cx="41" cy="9" r="6"/></g><g transform="translate(532 358)"><path stroke="#979797" stroke-width="2" d="M1 18h210v139H1z"/><path fill="#979797" d="M0 0h212v19H0z"/><circle fill="silver" transform="rotate(-1 11 9)" cx="11" cy="9" r="6"/><circle fill="silver" transform="rotate(-1 26 9)" cx="26" cy="9" r="6"/><circle fill="silver" transform="rotate(-1 41 9)" cx="41" cy="9" r="6"/></g><path fill="#710ECC" d="M417 476h41v17h-41z"/><path fill="#A4E2FD" d="M340 414h118v62H340z"/><path fill="#710ECC" d="M171 408h41v17h-41z"/><path fill="#A4E2FD" d="M94 425h118v62H94z"/><text font-family="SourceSansPro-Light, Source Sans Pro" font-size="18" font-weight="300" letter-spacing="-1" fill="#710ECC"><tspan x="292" y="343">UP_RIGHT</tspan></text><text font-family="SourceSansPro-Light, Source Sans Pro" font-size="18" font-weight="300" letter-spacing="-1" fill="#710ECC"><tspan x="53" y="343">DOWN_RIGHT</tspan></text><text font-family="SourceSansPro-Light, Source Sans Pro" font-size="18" font-weight="300" letter-spacing="-1" fill="#710ECC"><tspan x="532" y="343">VAUTO_RIGHT</tspan></text><g transform="translate(54 772)"><path stroke="#979797" stroke-width="2" d="M1 18h210v139H1z"/><path fill="#979797" d="M0 0h212v19H0z"/><circle fill="silver" transform="rotate(-1 11 9)" cx="11" cy="9" r="6"/><circle fill="silver" transform="rotate(-1 26 9)" cx="26" cy="9" r="6"/><circle fill="silver" transform="rotate(-1 41 9)" cx="41" cy="9" r="6"/></g><g transform="translate(293 773)"><path stroke="#979797" stroke-width="2" d="M1 18h210v139H1z"/><path fill="#979797" d="M0 0h212v19H0z"/><circle fill="silver" transform="rotate(-1 11 9)" cx="11" cy="9" r="6"/><circle fill="silver" transform="rotate(-1 26 9)" cx="26" cy="9" r="6"/><circle fill="silver" transform="rotate(-1 41 9)" cx="41" cy="9" r="6"/></g><g transform="translate(532 772)"><path stroke="#979797" stroke-width="2" d="M1 18h210v139H1z"/><path fill="#979797" d="M0 0h212v19H0z"/><circle fill="silver" transform="rotate(-1 11 9)" cx="11" cy="9" r="6"/><circle fill="silver" transform="rotate(-1 26 9)" cx="26" cy="9" r="6"/><circle fill="silver" transform="rotate(-1 41 9)" cx="41" cy="9" r="6"/></g><path fill="#710ECC" d="M678 804h41v17h-41z"/><path fill="#A4E2FD" d="M568 804h110v48H568z"/><path fill="#710ECC" d="M438 874h41v17h-41z"/><path fill="#A4E2FD" d="M320 829h118v62H320z"/><path fill="#710ECC" d="M677 899h41v17h-41z"/><path fill="#A4E2FD" d="M568 868h110v48H568z"/><path fill="#710ECC" d="M198 829h41v17h-41z"/><path fill="#A4E2FD" d="M80 829h118v62H80z"/><text font-family="SourceSansPro-Light, Source Sans Pro" font-size="18" font-weight="300" letter-spacing="-1" fill="#710ECC"><tspan x="292" y="757">LEFT_BOTTOM</tspan></text><text font-family="SourceSansPro-Light, Source Sans Pro" font-size="18" font-weight="300" letter-spacing="-1" fill="#710ECC"><tspan x="53" y="757">LEFT_TOP</tspan></text><text font-family="SourceSansPro-Light, Source Sans Pro" font-size="18" font-weight="300" letter-spacing="-1" fill="#710ECC"><tspan x="532" y="757">LEFT_VAUTO</tspan></text><path fill="#A4E2FD" d="M56 1420h56.251v38H56z"/><text font-family="SourceSansPro-Light, Source Sans Pro" font-size="18" font-weight="300" letter-spacing="-1" fill="#710ECC"><tspan x="231" y="1385">FIX_TOP_RIGHT</tspan></text><text font-family="SourceSansPro-Light, Source Sans Pro" font-size="18" font-weight="300" letter-spacing="-1" fill="#710ECC"><tspan x="53" y="1385">FIX_TOP_LEFT</tspan></text><path fill="#710ECC" d="M592 33h41v17h-41z"/><path fill="#A4E2FD" d="M592 64h41v17h-41z"/><text font-family="SourceSansPro-Light, Source Sans Pro" font-size="18" font-weight="300" letter-spacing="-1" fill="#710ECC"><tspan x="639" y="48">= Trigger Element</tspan></text><text font-family="SourceSansPro-Light, Source Sans Pro" font-size="18" font-weight="300" letter-spacing="-1" fill="#710ECC"><tspan x="639" y="79">= Dropout Container</tspan></text><text font-family="SourceSansPro-Light, Source Sans Pro" font-size="18" font-weight="300" letter-spacing="-1" fill="#710ECC"><tspan x="588" y="1385">FIX_BOTTOM_RIGHT</tspan></text><text font-family="SourceSansPro-Light, Source Sans Pro" font-size="18" font-weight="300" letter-spacing="-1" fill="#710ECC"><tspan x="410" y="1385">FIX_BOTTOM_LEFT</tspan></text><path fill="#710ECC" d="M592 282h41v17h-41z"/><path fill="#A4E2FD" d="M592 244h93v38h-93z"/><path fill="#710ECC" d="M646 385h41v17h-41z"/><path fill="#A4E2FD" d="M594 402h93v38h-93z"/><path fill="#710ECC" d="M646 491h41v17h-41z"/><path fill="#A4E2FD" d="M594 453h93v38h-93z"/><g transform="translate(54 980)"><path stroke="#979797" stroke-width="2" d="M1 18h210v139H1z"/><path fill="#979797" d="M0 0h212v19H0z"/><circle fill="silver" transform="rotate(-1 11 9)" cx="11" cy="9" r="6"/><circle fill="silver" transform="rotate(-1 26 9)" cx="26" cy="9" r="6"/><circle fill="silver" transform="rotate(-1 41 9)" cx="41" cy="9" r="6"/></g><g transform="translate(293 981)"><path stroke="#979797" stroke-width="2" d="M1 18h210v139H1z"/><path fill="#979797" d="M0 0h212v19H0z"/><circle fill="silver" transform="rotate(-1 11 9)" cx="11" cy="9" r="6"/><circle fill="silver" transform="rotate(-1 26 9)" cx="26" cy="9" r="6"/><circle fill="silver" transform="rotate(-1 41 9)" cx="41" cy="9" r="6"/></g><g transform="translate(532 980)"><path stroke="#979797" stroke-width="2" d="M1 18h210v139H1z"/><path fill="#979797" d="M0 0h212v19H0z"/><circle fill="silver" transform="rotate(-1 11 9)" cx="11" cy="9" r="6"/><circle fill="silver" transform="rotate(-1 26 9)" cx="26" cy="9" r="6"/><circle fill="silver" transform="rotate(-1 41 9)" cx="41" cy="9" r="6"/></g><path fill="#710ECC" d="M565 1012h41v17h-41z"/><path fill="#A4E2FD" d="M606 1012h110v48H606z"/><path fill="#710ECC" d="M315 1082h41v17h-41z"/><path fill="#A4E2FD" d="M356 1037h118v62H356z"/><path fill="#710ECC" d="M565 1107h41v17h-41z"/><path fill="#A4E2FD" d="M606 1076h110v48H606z"/><path fill="#710ECC" d="M80 1037h41v17H80z"/><path fill="#A4E2FD" d="M121 1037h118v62H121z"/><text font-family="SourceSansPro-Light, Source Sans Pro" font-size="18" font-weight="300" letter-spacing="-1" fill="#710ECC" transform="translate(53 947)"><tspan x="239" y="18">RIGHT_BOTTOM</tspan></text><text font-family="SourceSansPro-Light, Source Sans Pro" font-size="18" font-weight="300" letter-spacing="-1" fill="#710ECC" transform="translate(53 947)"><tspan x="0" y="18">RIGHT_TOP</tspan></text><text font-family="SourceSansPro-Light, Source Sans Pro" font-size="18" font-weight="300" letter-spacing="-1" fill="#710ECC" transform="translate(53 947)"><tspan x="479" y="18">RIGHT_VAUTO</tspan></text><g transform="translate(54 563)"><path stroke="#979797" stroke-width="2" d="M1 18h210v139H1z"/><path fill="#979797" d="M0 0h212v19H0z"/><circle fill="silver" transform="rotate(-1 11 9)" cx="11" cy="9" r="6"/><circle fill="silver" transform="rotate(-1 26 9)" cx="26" cy="9" r="6"/><circle fill="silver" transform="rotate(-1 41 9)" cx="41" cy="9" r="6"/></g><g transform="translate(293 564)"><path stroke="#979797" stroke-width="2" d="M1 18h210v139H1z"/><path fill="#979797" d="M0 0h212v19H0z"/><circle fill="silver" transform="rotate(-1 11 9)" cx="11" cy="9" r="6"/><circle fill="silver" transform="rotate(-1 26 9)" cx="26" cy="9" r="6"/><circle fill="silver" transform="rotate(-1 41 9)" cx="41" cy="9" r="6"/></g><path fill="#A4E2FD" d="M151 630h85v62h-85z"/><g transform="translate(532 563)"><path stroke="#979797" stroke-width="2" d="M1 18h210v139H1z"/><path fill="#979797" d="M0 0h212v19H0z"/><circle fill="silver" transform="rotate(-1 11 9)" cx="11" cy="9" r="6"/><circle fill="silver" transform="rotate(-1 26 9)" cx="26" cy="9" r="6"/><circle fill="silver" transform="rotate(-1 41 9)" cx="41" cy="9" r="6"/></g><path fill="#710ECC" d="M376 684h41v17h-41zM130 613h41v17h-41z"/><path fill="#A4E2FD" d="M395 622h84v62h-84z"/><text font-family="SourceSansPro-Light, Source Sans Pro" font-size="18" font-weight="300" letter-spacing="-1" fill="#710ECC"><tspan x="292" y="548">UP_CENTER</tspan></text><text font-family="SourceSansPro-Light, Source Sans Pro" font-size="18" font-weight="300" letter-spacing="-1" fill="#710ECC"><tspan x="53" y="548">DOWN_CENTER</tspan></text><text font-family="SourceSansPro-Light, Source Sans Pro" font-size="18" font-weight="300" letter-spacing="-1" fill="#710ECC"><tspan x="532" y="548">VAUTO_CENTER</tspan></text><path fill="#710ECC" d="M614 590h41v17h-41z"/><path fill="#A4E2FD" d="M633 607h75v38h-75z"/><path fill="#710ECC" d="M614 696h41v17h-41z"/><path fill="#A4E2FD" d="M633 658h75v38h-75z"/><g><g transform="translate(54 1190)"><path stroke="#979797" stroke-width="2" d="M1 18h210v139H1z"/><path fill="#979797" d="M0 0h212v19H0z"/><circle fill="silver" transform="rotate(-1 11 9)" cx="11" cy="9" r="6"/><circle fill="silver" transform="rotate(-1 26 9)" cx="26" cy="9" r="6"/><circle fill="silver" transform="rotate(-1 41 9)" cx="41" cy="9" r="6"/></g><g transform="translate(293 1191)"><path stroke="#979797" stroke-width="2" d="M1 18h210v139H1z"/><path fill="#979797" d="M0 0h212v19H0z"/><circle fill="silver" transform="rotate(-1 11 9)" cx="11" cy="9" r="6"/><circle fill="silver" transform="rotate(-1 26 9)" cx="26" cy="9" r="6"/><circle fill="silver" transform="rotate(-1 41 9)" cx="41" cy="9" r="6"/></g><g transform="translate(532 1190)"><path stroke="#979797" stroke-width="2" d="M1 18h210v139H1z"/><path fill="#979797" d="M0 0h212v19H0z"/><circle fill="silver" transform="rotate(-1 11 9)" cx="11" cy="9" r="6"/><circle fill="silver" transform="rotate(-1 26 9)" cx="26" cy="9" r="6"/><circle fill="silver" transform="rotate(-1 41 9)" cx="41" cy="9" r="6"/></g><path fill="#710ECC" d="M545 1217h41v17h-41z"/><path fill="#A4E2FD" d="M586 1224h93v48h-93z"/><path fill="#710ECC" d="M317 1239h41v17h-41z"/><path fill="#A4E2FD" d="M358 1248h118v62H358z"/><path fill="#710ECC" d="M678 1284h41v17h-41z"/><path fill="#A4E2FD" d="M585 1293h93v48h-93z"/><path fill="#710ECC" d="M198 1238h41v17h-41z"/><path fill="#A4E2FD" d="M80 1247h118v62H80z"/><text font-family="SourceSansPro-Light, Source Sans Pro" font-size="18" font-weight="300" letter-spacing="-1" fill="#710ECC" transform="translate(53 1157)"><tspan x="239" y="18">RIGHT_CENTER</tspan></text><text font-family="SourceSansPro-Light, Source Sans Pro" font-size="18" font-weight="300" letter-spacing="-1" fill="#710ECC" transform="translate(53 1157)"><tspan x="0" y="18">LEFT_CENTER</tspan></text><text font-family="SourceSansPro-Light, Source Sans Pro" font-size="18" font-weight="300" letter-spacing="-1" fill="#710ECC" transform="translate(53 1157)"><tspan x="479" y="18">HAUTO_CENTER</tspan></text></g><path fill="#A4E2FD" d="M329.749 1420H386v38h-56.251zM412 1518h56.251v38H412z"/><g transform="translate(54 1399)"><path stroke="#979797" stroke-width="2" d="M1 20h154v139H1z"/><path fill="#979797" d="M0 2h156v19H0z"/><circle fill="silver" transform="rotate(-1 9.68 11)" cx="9.679" cy="11" r="6"/><circle fill="silver" transform="rotate(-1 23.717 11)" cx="23.717" cy="11" r="6"/><circle fill="silver" transform="rotate(-1 38.755 11)" cx="38.755" cy="11" r="6"/><path stroke="#979797" stroke-width="2" d="M179 20h154v139H179z"/><path fill="#979797" d="M178 2h156v19H178z"/><circle fill="silver" transform="rotate(-1 187.68 11)" cx="187.679" cy="11" r="6"/><circle fill="silver" transform="rotate(-1 201.717 11)" cx="201.717" cy="11" r="6"/><circle fill="silver" transform="rotate(-1 216.755 11)" cx="216.755" cy="11" r="6"/><path stroke="#979797" stroke-width="2" d="M357 19h154v139H357z"/><path fill="#979797" d="M356 1h156v19H356z"/><circle fill="silver" transform="rotate(-1 365.68 10)" cx="365.679" cy="10" r="6"/><circle fill="silver" transform="rotate(-1 379.717 10)" cx="379.717" cy="10" r="6"/><circle fill="silver" transform="rotate(-1 394.755 10)" cx="394.755" cy="10" r="6"/><path stroke="#979797" stroke-width="2" d="M535 18h154v139H535z"/><path fill="#979797" d="M534 0h156v19H534z"/><circle fill="silver" transform="rotate(-1 543.68 9)" cx="543.679" cy="9" r="6"/><circle fill="silver" transform="rotate(-1 557.717 9)" cx="557.717" cy="9" r="6"/><circle fill="silver" transform="rotate(-1 572.755 9)" cx="572.755" cy="9" r="6"/></g><path fill="#A4E2FD" d="M686 1517h56.251v38H686z"/></g></svg>
