<?xml version="1.0" encoding="UTF-8" standalone="no"?>
<!DOCTYPE svg PUBLIC "-//W3C//DTD SVG 1.1//EN"
 "http://www.w3.org/Graphics/SVG/1.1/DTD/svg11.dtd">
<!-- Generated by graphviz version 2.40.1 (20161225.0304)
 -->
<!-- Title: dependencies Pages: 1 -->
<svg width="1169pt" height="284pt"
 viewBox="0.00 0.00 1169.00 284.00" xmlns="http://www.w3.org/2000/svg" xmlns:xlink="http://www.w3.org/1999/xlink">
<g id="graph0" class="graph" transform="scale(1 1) rotate(0) translate(4 280)">
<title>dependencies</title>
<polygon fill="#ffffff" stroke="transparent" points="-4,4 -4,-280 1165,-280 1165,4 -4,4"/>
<text text-anchor="start" x="559.5091" y="-42.4" font-family="sans-serif" font-weight="bold" font-size="14.00" fill="#000000">Legend</text>
<polygon fill="#ffffb3" stroke="transparent" points="346.5,-10 346.5,-30 366.5,-30 366.5,-10 346.5,-10"/>
<text text-anchor="start" x="370.129" y="-15.4" font-family="sans-serif" font-size="14.00" fill="#000000"> &#160;Declarations</text>
<polygon fill="#8dd3c7" stroke="transparent" points="459.5,-10 459.5,-30 479.5,-30 479.5,-10 459.5,-10"/>
<text text-anchor="start" x="483.2251" y="-15.4" font-family="sans-serif" font-size="14.00" fill="#000000"> &#160;Module</text>
<polygon fill="#80b1d3" stroke="transparent" points="545.5,-10 545.5,-30 565.5,-30 565.5,-10 545.5,-10"/>
<text text-anchor="start" x="569.2812" y="-15.4" font-family="sans-serif" font-size="14.00" fill="#000000"> &#160;Bootstrap</text>
<polygon fill="#fdb462" stroke="transparent" points="642.5,-10 642.5,-30 662.5,-30 662.5,-10 642.5,-10"/>
<text text-anchor="start" x="666.1732" y="-15.4" font-family="sans-serif" font-size="14.00" fill="#000000"> &#160;Providers</text>
<polygon fill="#fb8072" stroke="transparent" points="738.5,-10 738.5,-30 758.5,-30 758.5,-10 738.5,-10"/>
<text text-anchor="start" x="762.2258" y="-15.4" font-family="sans-serif" font-size="14.00" fill="#000000"> &#160;Exports</text>
<g id="clust1" class="cluster">
<title>cluster_DemoModule</title>
<polygon fill="none" stroke="#000000" stroke-dasharray="1,5" points="8,-70 8,-268 1153,-268 1153,-70 8,-70"/>
</g>
<g id="clust2" class="cluster">
<title>cluster_DemoModule_declarations</title>
<polygon fill="none" stroke="#000000" points="581,-78 581,-130 1145,-130 1145,-78 581,-78"/>
</g>
<g id="clust7" class="cluster">
<title>cluster_DemoModule_imports</title>
<polygon fill="none" stroke="#000000" points="16,-78 16,-130 573,-130 573,-78 16,-78"/>
</g>
<g id="clust8" class="cluster">
<title>cluster_DemoModule_exports</title>
<polygon fill="none" stroke="#000000" points="512,-208 512,-260 648,-260 648,-208 512,-208"/>
</g>
<!-- DemoComponent -->
<g id="node1" class="node">
<title>DemoComponent</title>
<polygon fill="#ffffb3" stroke="#000000" points="1136.5451,-122 1021.4549,-122 1021.4549,-86 1136.5451,-86 1136.5451,-122"/>
<text text-anchor="middle" x="1079" y="-99.8" font-family="Times,serif" font-size="14.00" fill="#000000">DemoComponent</text>
</g>
<!-- DemoModule -->
<g id="node5" class="node">
<title>DemoModule</title>
<polygon fill="#8dd3c7" stroke="#000000" points="626.7619,-187 623.7619,-191 602.7619,-191 599.7619,-187 533.2381,-187 533.2381,-151 626.7619,-151 626.7619,-187"/>
<text text-anchor="middle" x="580" y="-164.8" font-family="Times,serif" font-size="14.00" fill="#000000">DemoModule</text>
</g>
<!-- DemoComponent&#45;&gt;DemoModule -->
<g id="edge1" class="edge">
<title>DemoComponent&#45;&gt;DemoModule</title>
<path fill="none" stroke="#000000" d="M1079,-122.2921C1079,-144.2057 1079,-178 1079,-178 1079,-178 636.9447,-178 636.9447,-178"/>
<polygon fill="#000000" stroke="#000000" points="636.9447,-174.5001 626.9447,-178 636.9447,-181.5001 636.9447,-174.5001"/>
</g>
<!-- Story00Component -->
<g id="node2" class="node">
<title>Story00Component</title>
<polygon fill="#ffffb3" stroke="#000000" points="1002.6666,-122 877.3334,-122 877.3334,-86 1002.6666,-86 1002.6666,-122"/>
<text text-anchor="middle" x="940" y="-99.8" font-family="Times,serif" font-size="14.00" fill="#000000">Story00Component</text>
</g>
<!-- Story00Component&#45;&gt;DemoModule -->
<g id="edge2" class="edge">
<title>Story00Component&#45;&gt;DemoModule</title>
<path fill="none" stroke="#000000" d="M940,-122.1061C940,-141.3391 940,-169 940,-169 940,-169 637.0637,-169 637.0637,-169"/>
<polygon fill="#000000" stroke="#000000" points="637.0637,-165.5001 627.0637,-169 637.0637,-172.5001 637.0637,-165.5001"/>
</g>
<!-- Story01Component -->
<g id="node3" class="node">
<title>Story01Component</title>
<polygon fill="#ffffb3" stroke="#000000" points="858.6666,-122 733.3334,-122 733.3334,-86 858.6666,-86 858.6666,-122"/>
<text text-anchor="middle" x="796" y="-99.8" font-family="Times,serif" font-size="14.00" fill="#000000">Story01Component</text>
</g>
<!-- Story01Component&#45;&gt;DemoModule -->
<g id="edge3" class="edge">
<title>Story01Component&#45;&gt;DemoModule</title>
<path fill="none" stroke="#000000" d="M796,-122.027C796,-138.3976 796,-160 796,-160 796,-160 636.8688,-160 636.8688,-160"/>
<polygon fill="#000000" stroke="#000000" points="636.8688,-156.5001 626.8688,-160 636.8687,-163.5001 636.8688,-156.5001"/>
</g>
<!-- Story02Component -->
<g id="node4" class="node">
<title>Story02Component</title>
<polygon fill="#ffffb3" stroke="#000000" points="714.6666,-122 589.3334,-122 589.3334,-86 714.6666,-86 714.6666,-122"/>
<text text-anchor="middle" x="652" y="-99.8" font-family="Times,serif" font-size="14.00" fill="#000000">Story02Component</text>
</g>
<!-- Story02Component&#45;&gt;DemoModule -->
<g id="edge4" class="edge">
<title>Story02Component&#45;&gt;DemoModule</title>
<path fill="none" stroke="#000000" d="M608.0239,-122.1061C608.0239,-122.1061 608.0239,-140.991 608.0239,-140.991"/>
<polygon fill="#000000" stroke="#000000" points="604.5239,-140.9909 608.0239,-150.991 611.5239,-140.991 604.5239,-140.9909"/>
</g>
<!-- DemoComponent  -->
<g id="node10" class="node">
<title>DemoComponent </title>
<polygon fill="#fb8072" stroke="#000000" points="639.5442,-252 520.4558,-252 520.4558,-216 639.5442,-216 639.5442,-252"/>
<text text-anchor="middle" x="580" y="-229.8" font-family="Times,serif" font-size="14.00" fill="#000000">DemoComponent </text>
</g>
<!-- DemoModule&#45;&gt;DemoComponent  -->
<g id="edge9" class="edge">
<title>DemoModule&#45;&gt;DemoComponent </title>
<path fill="none" stroke="#000000" stroke-dasharray="5,2" d="M580,-187.1061C580,-187.1061 580,-205.991 580,-205.991"/>
<polygon fill="#000000" stroke="#000000" points="576.5001,-205.9909 580,-215.991 583.5001,-205.991 576.5001,-205.9909"/>
</g>
<!-- CommonModule -->
<g id="node6" class="node">
<title>CommonModule</title>
<polygon fill="#8dd3c7" stroke="#000000" points="564.6681,-122 561.6681,-126 540.6681,-126 537.6681,-122 453.3319,-122 453.3319,-86 564.6681,-86 564.6681,-122"/>
<text text-anchor="middle" x="509" y="-99.8" font-family="Times,serif" font-size="14.00" fill="#000000">CommonModule</text>
</g>
<!-- CommonModule&#45;&gt;DemoModule -->
<g id="edge5" class="edge">
<title>CommonModule&#45;&gt;DemoModule</title>
<path fill="none" stroke="#000000" d="M548.9765,-122.1061C548.9765,-122.1061 548.9765,-140.991 548.9765,-140.991"/>
<polygon fill="#000000" stroke="#000000" points="545.4766,-140.9909 548.9765,-150.991 552.4766,-140.991 545.4766,-140.9909"/>
</g>
<!-- FormsModule -->
<g id="node7" class="node">
<title>FormsModule</title>
<polygon fill="#8dd3c7" stroke="#000000" points="435.8288,-122 432.8288,-126 411.8288,-126 408.8288,-122 340.1712,-122 340.1712,-86 435.8288,-86 435.8288,-122"/>
<text text-anchor="middle" x="388" y="-99.8" font-family="Times,serif" font-size="14.00" fill="#000000">FormsModule</text>
</g>
<!-- FormsModule&#45;&gt;DemoModule -->
<g id="edge6" class="edge">
<title>FormsModule&#45;&gt;DemoModule</title>
<path fill="none" stroke="#000000" d="M388,-122.027C388,-138.3976 388,-160 388,-160 388,-160 523.0315,-160 523.0315,-160"/>
<polygon fill="#000000" stroke="#000000" points="523.0316,-163.5001 533.0315,-160 523.0315,-156.5001 523.0316,-163.5001"/>
</g>
<!-- CloukitStoryModule -->
<g id="node8" class="node">
<title>CloukitStoryModule</title>
<polygon fill="#8dd3c7" stroke="#000000" points="321.892,-122 318.892,-126 297.892,-126 294.892,-122 190.108,-122 190.108,-86 321.892,-86 321.892,-122"/>
<text text-anchor="middle" x="256" y="-99.8" font-family="Times,serif" font-size="14.00" fill="#000000">CloukitStoryModule</text>
</g>
<!-- CloukitStoryModule&#45;&gt;DemoModule -->
<g id="edge7" class="edge">
<title>CloukitStoryModule&#45;&gt;DemoModule</title>
<path fill="none" stroke="#000000" d="M256,-122.1061C256,-141.3391 256,-169 256,-169 256,-169 523.2336,-169 523.2336,-169"/>
<polygon fill="#000000" stroke="#000000" points="523.2337,-172.5001 533.2336,-169 523.2336,-165.5001 523.2337,-172.5001"/>
</g>
<!-- CloukitDropoutModule -->
<g id="node9" class="node">
<title>CloukitDropoutModule</title>
<polygon fill="#8dd3c7" stroke="#000000" points="172.2162,-122 169.2162,-126 148.2162,-126 145.2162,-122 23.7838,-122 23.7838,-86 172.2162,-86 172.2162,-122"/>
<text text-anchor="middle" x="98" y="-99.8" font-family="Times,serif" font-size="14.00" fill="#000000">CloukitDropoutModule</text>
</g>
<!-- CloukitDropoutModule&#45;&gt;DemoModule -->
<g id="edge8" class="edge">
<title>CloukitDropoutModule&#45;&gt;DemoModule</title>
<path fill="none" stroke="#000000" d="M98,-122.2921C98,-144.2057 98,-178 98,-178 98,-178 522.9062,-178 522.9062,-178"/>
<polygon fill="#000000" stroke="#000000" points="522.9062,-181.5001 532.9062,-178 522.9062,-174.5001 522.9062,-181.5001"/>
</g>
</g>
</svg>
