<?xml version="1.0" encoding="UTF-8" standalone="no"?>
<!DOCTYPE svg PUBLIC "-//W3C//DTD SVG 1.1//EN"
 "http://www.w3.org/Graphics/SVG/1.1/DTD/svg11.dtd">
<!-- Generated by graphviz version 2.40.1 (20161225.0304)
 -->
<!-- Title: dependencies Pages: 1 -->
<svg width="904pt" height="284pt"
 viewBox="0.00 0.00 904.00 284.00" xmlns="http://www.w3.org/2000/svg" xmlns:xlink="http://www.w3.org/1999/xlink">
<g id="graph0" class="graph" transform="scale(1 1) rotate(0) translate(4 280)">
<title>dependencies</title>
<polygon fill="#ffffff" stroke="transparent" points="-4,4 -4,-280 900,-280 900,4 -4,4"/>
<text text-anchor="start" x="427.0091" y="-42.4" font-family="sans-serif" font-weight="bold" font-size="14.00" fill="#000000">Legend</text>
<polygon fill="#ffffb3" stroke="transparent" points="214,-10 214,-30 234,-30 234,-10 214,-10"/>
<text text-anchor="start" x="237.629" y="-15.4" font-family="sans-serif" font-size="14.00" fill="#000000"> &#160;Declarations</text>
<polygon fill="#8dd3c7" stroke="transparent" points="327,-10 327,-30 347,-30 347,-10 327,-10"/>
<text text-anchor="start" x="350.7251" y="-15.4" font-family="sans-serif" font-size="14.00" fill="#000000"> &#160;Module</text>
<polygon fill="#80b1d3" stroke="transparent" points="413,-10 413,-30 433,-30 433,-10 413,-10"/>
<text text-anchor="start" x="436.7812" y="-15.4" font-family="sans-serif" font-size="14.00" fill="#000000"> &#160;Bootstrap</text>
<polygon fill="#fdb462" stroke="transparent" points="510,-10 510,-30 530,-30 530,-10 510,-10"/>
<text text-anchor="start" x="533.6732" y="-15.4" font-family="sans-serif" font-size="14.00" fill="#000000"> &#160;Providers</text>
<polygon fill="#fb8072" stroke="transparent" points="606,-10 606,-30 626,-30 626,-10 606,-10"/>
<text text-anchor="start" x="629.7258" y="-15.4" font-family="sans-serif" font-size="14.00" fill="#000000"> &#160;Exports</text>
<g id="clust1" class="cluster">
<title>cluster_CloukitDropoutModule</title>
<polygon fill="none" stroke="#000000" stroke-dasharray="1,5" points="8,-70 8,-268 888,-268 888,-70 8,-70"/>
</g>
<g id="clust2" class="cluster">
<title>cluster_CloukitDropoutModule_declarations</title>
<polygon fill="none" stroke="#000000" points="242,-78 242,-130 880,-130 880,-78 242,-78"/>
</g>
<g id="clust7" class="cluster">
<title>cluster_CloukitDropoutModule_exports</title>
<polygon fill="none" stroke="#000000" points="255,-208 255,-260 657,-260 657,-208 255,-208"/>
</g>
<g id="clust9" class="cluster">
<title>cluster_CloukitDropoutModule_providers</title>
<polygon fill="none" stroke="#000000" points="16,-78 16,-130 234,-130 234,-78 16,-78"/>
</g>
<!-- CloukitDropoutDirective -->
<g id="node1" class="node">
<title>CloukitDropoutDirective</title>
<polygon fill="#ffffb3" stroke="#000000" points="872.2492,-122 715.7508,-122 715.7508,-86 872.2492,-86 872.2492,-122"/>
<text text-anchor="middle" x="794" y="-99.8" font-family="Times,serif" font-size="14.00" fill="#000000">CloukitDropoutDirective</text>
</g>
<!-- CloukitDropoutModule -->
<g id="node4" class="node">
<title>CloukitDropoutModule</title>
<polygon fill="#8dd3c7" stroke="#000000" points="542.2162,-187 539.2162,-191 518.2162,-191 515.2162,-187 393.7838,-187 393.7838,-151 542.2162,-151 542.2162,-187"/>
<text text-anchor="middle" x="468" y="-164.8" font-family="Times,serif" font-size="14.00" fill="#000000">CloukitDropoutModule</text>
</g>
<!-- CloukitDropoutDirective&#45;&gt;CloukitDropoutModule -->
<g id="edge1" class="edge">
<title>CloukitDropoutDirective&#45;&gt;CloukitDropoutModule</title>
<path fill="none" stroke="#000000" d="M794,-122.1061C794,-141.3391 794,-169 794,-169 794,-169 552.3824,-169 552.3824,-169"/>
<polygon fill="#000000" stroke="#000000" points="552.3824,-165.5001 542.3824,-169 552.3823,-172.5001 552.3824,-165.5001"/>
</g>
<!-- CloukitDropoutContainerComponent -->
<g id="node2" class="node">
<title>CloukitDropoutContainerComponent</title>
<polygon fill="#ffffb3" stroke="#000000" points="697.7063,-122 472.2937,-122 472.2937,-86 697.7063,-86 697.7063,-122"/>
<text text-anchor="middle" x="585" y="-99.8" font-family="Times,serif" font-size="14.00" fill="#000000">CloukitDropoutContainerComponent</text>
</g>
<!-- CloukitDropoutContainerComponent&#45;&gt;CloukitDropoutModule -->
<g id="edge2" class="edge">
<title>CloukitDropoutContainerComponent&#45;&gt;CloukitDropoutModule</title>
<path fill="none" stroke="#000000" d="M507.2525,-122.1061C507.2525,-122.1061 507.2525,-140.991 507.2525,-140.991"/>
<polygon fill="#000000" stroke="#000000" points="503.7525,-140.9909 507.2525,-150.991 510.7525,-140.991 503.7525,-140.9909"/>
</g>
<!-- CloukitDropoutOutletComponent -->
<g id="node3" class="node">
<title>CloukitDropoutOutletComponent</title>
<polygon fill="#ffffb3" stroke="#000000" points="454.4916,-122 249.5084,-122 249.5084,-86 454.4916,-86 454.4916,-122"/>
<text text-anchor="middle" x="352" y="-99.8" font-family="Times,serif" font-size="14.00" fill="#000000">CloukitDropoutOutletComponent</text>
</g>
<!-- CloukitDropoutOutletComponent&#45;&gt;CloukitDropoutModule -->
<g id="edge3" class="edge">
<title>CloukitDropoutOutletComponent&#45;&gt;CloukitDropoutModule</title>
<path fill="none" stroke="#000000" d="M424.1939,-122.1061C424.1939,-122.1061 424.1939,-140.991 424.1939,-140.991"/>
<polygon fill="#000000" stroke="#000000" points="420.694,-140.9909 424.1939,-150.991 427.694,-140.991 420.694,-140.9909"/>
</g>
<!-- CloukitDropoutDirective  -->
<g id="node5" class="node">
<title>CloukitDropoutDirective </title>
<polygon fill="#fb8072" stroke="#000000" points="649.2492,-252 488.7508,-252 488.7508,-216 649.2492,-216 649.2492,-252"/>
<text text-anchor="middle" x="569" y="-229.8" font-family="Times,serif" font-size="14.00" fill="#000000">CloukitDropoutDirective </text>
</g>
<!-- CloukitDropoutModule&#45;&gt;CloukitDropoutDirective  -->
<g id="edge4" class="edge">
<title>CloukitDropoutModule&#45;&gt;CloukitDropoutDirective </title>
<path fill="none" stroke="#000000" stroke-dasharray="5,2" d="M515.4917,-187.1061C515.4917,-187.1061 515.4917,-205.991 515.4917,-205.991"/>
<polygon fill="#000000" stroke="#000000" points="511.9918,-205.9909 515.4917,-215.991 518.9918,-205.991 511.9918,-205.9909"/>
</g>
<!-- CloukitDropoutOutletComponent  -->
<g id="node6" class="node">
<title>CloukitDropoutOutletComponent </title>
<polygon fill="#fb8072" stroke="#000000" points="471.4922,-252 262.5078,-252 262.5078,-216 471.4922,-216 471.4922,-252"/>
<text text-anchor="middle" x="367" y="-229.8" font-family="Times,serif" font-size="14.00" fill="#000000">CloukitDropoutOutletComponent </text>
</g>
<!-- CloukitDropoutModule&#45;&gt;CloukitDropoutOutletComponent  -->
<g id="edge5" class="edge">
<title>CloukitDropoutModule&#45;&gt;CloukitDropoutOutletComponent </title>
<path fill="none" stroke="#000000" stroke-dasharray="5,2" d="M432.5689,-187.1061C432.5689,-187.1061 432.5689,-205.991 432.5689,-205.991"/>
<polygon fill="#000000" stroke="#000000" points="429.069,-205.9909 432.5689,-215.991 436.069,-205.991 429.069,-205.9909"/>
</g>
<!-- CloukitDropoutService -->
<g id="node7" class="node">
<title>CloukitDropoutService</title>
<ellipse fill="#fdb462" stroke="#000000" cx="125" cy="-104" rx="101.3047" ry="18"/>
<text text-anchor="middle" x="125" y="-99.8" font-family="Times,serif" font-size="14.00" fill="#000000">CloukitDropoutService</text>
</g>
<!-- CloukitDropoutService&#45;&gt;CloukitDropoutModule -->
<g id="edge6" class="edge">
<title>CloukitDropoutService&#45;&gt;CloukitDropoutModule</title>
<path fill="none" stroke="#000000" d="M125,-122.1061C125,-141.3391 125,-169 125,-169 125,-169 383.5741,-169 383.5741,-169"/>
<polygon fill="#000000" stroke="#000000" points="383.5741,-172.5001 393.5741,-169 383.5741,-165.5001 383.5741,-172.5001"/>
</g>
</g>
</svg>
