<?xml version="1.0" encoding="UTF-8" standalone="no"?>
<!DOCTYPE svg PUBLIC "-//W3C//DTD SVG 1.1//EN"
 "http://www.w3.org/Graphics/SVG/1.1/DTD/svg11.dtd">
<!-- Generated by graphviz version 2.40.1 (20161225.0304)
 -->
<!-- Title: dependencies Pages: 1 -->
<svg width="733pt" height="355pt"
 viewBox="0.00 0.00 733.00 355.00" xmlns="http://www.w3.org/2000/svg" xmlns:xlink="http://www.w3.org/1999/xlink">
<g id="graph0" class="graph" transform="scale(1 1) rotate(0) translate(4 351)">
<title>dependencies</title>
<polygon fill="#ffffff" stroke="transparent" points="-4,4 -4,-351 729,-351 729,4 -4,4"/>
<text text-anchor="start" x="341.5091" y="-42.4" font-family="sans-serif" font-weight="bold" font-size="14.00" fill="#000000">Legend</text>
<polygon fill="#ffffb3" stroke="transparent" points="128.5,-10 128.5,-30 148.5,-30 148.5,-10 128.5,-10"/>
<text text-anchor="start" x="152.129" y="-15.4" font-family="sans-serif" font-size="14.00" fill="#000000"> &#160;Declarations</text>
<polygon fill="#8dd3c7" stroke="transparent" points="241.5,-10 241.5,-30 261.5,-30 261.5,-10 241.5,-10"/>
<text text-anchor="start" x="265.2251" y="-15.4" font-family="sans-serif" font-size="14.00" fill="#000000"> &#160;Module</text>
<polygon fill="#80b1d3" stroke="transparent" points="327.5,-10 327.5,-30 347.5,-30 347.5,-10 327.5,-10"/>
<text text-anchor="start" x="351.2812" y="-15.4" font-family="sans-serif" font-size="14.00" fill="#000000"> &#160;Bootstrap</text>
<polygon fill="#fdb462" stroke="transparent" points="424.5,-10 424.5,-30 444.5,-30 444.5,-10 424.5,-10"/>
<text text-anchor="start" x="448.1732" y="-15.4" font-family="sans-serif" font-size="14.00" fill="#000000"> &#160;Providers</text>
<polygon fill="#fb8072" stroke="transparent" points="520.5,-10 520.5,-30 540.5,-30 540.5,-10 520.5,-10"/>
<text text-anchor="start" x="544.2258" y="-15.4" font-family="sans-serif" font-size="14.00" fill="#000000"> &#160;Exports</text>
<g id="clust1" class="cluster">
<title>cluster_CloukitDropoutModule</title>
<polygon fill="none" stroke="#000000" stroke-dasharray="1,5" points="8,-70 8,-271 426,-271 426,-70 8,-70"/>
</g>
<g id="clust3" class="cluster">
<title>cluster_CloukitDropoutModule_imports</title>
<polygon fill="none" stroke="#000000" points="275,-78 275,-130 403,-130 403,-78 275,-78"/>
</g>
<g id="clust4" class="cluster">
<title>cluster_CloukitDropoutModule_exports</title>
<polygon fill="none" stroke="#000000" points="16,-211 16,-263 418,-263 418,-211 16,-211"/>
</g>
<g id="clust7" class="cluster">
<title>cluster_DemoModule</title>
<polygon fill="none" stroke="#000000" stroke-dasharray="1,5" points="439,-138 439,-339 717,-339 717,-138 439,-138"/>
</g>
<g id="clust9" class="cluster">
<title>cluster_DemoModule_imports</title>
<polygon fill="none" stroke="#000000" points="447,-146 447,-198 709,-198 709,-146 447,-146"/>
</g>
<g id="clust10" class="cluster">
<title>cluster_DemoModule_exports</title>
<polygon fill="none" stroke="#000000" points="450,-279 450,-331 586,-331 586,-279 450,-279"/>
</g>
<!-- CommonModule -->
<g id="node1" class="node">
<title>CommonModule</title>
<polygon fill="#8dd3c7" stroke="#000000" points="394.6681,-122 391.6681,-126 370.6681,-126 367.6681,-122 283.3319,-122 283.3319,-86 394.6681,-86 394.6681,-122"/>
<text text-anchor="middle" x="339" y="-99.8" font-family="Times,serif" font-size="14.00" fill="#000000">CommonModule</text>
</g>
<!-- CloukitDropoutModule -->
<g id="node2" class="node">
<title>CloukitDropoutModule</title>
<polygon fill="#8dd3c7" stroke="#000000" points="399.2162,-190 396.2162,-194 375.2162,-194 372.2162,-190 250.7838,-190 250.7838,-154 399.2162,-154 399.2162,-190"/>
<text text-anchor="middle" x="325" y="-167.8" font-family="Times,serif" font-size="14.00" fill="#000000">CloukitDropoutModule</text>
</g>
<!-- CommonModule&#45;&gt;CloukitDropoutModule -->
<g id="edge1" class="edge">
<title>CommonModule&#45;&gt;CloukitDropoutModule</title>
<path fill="none" stroke="#000000" d="M339,-122.2228C339,-122.2228 339,-143.7269 339,-143.7269"/>
<polygon fill="#000000" stroke="#000000" points="335.5001,-143.7269 339,-153.7269 342.5001,-143.727 335.5001,-143.7269"/>
</g>
<!-- DemoModule -->
<g id="node7" class="node">
<title>DemoModule</title>
<polygon fill="#8dd3c7" stroke="#000000" points="564.7619,-255 561.7619,-259 540.7619,-259 537.7619,-255 471.2381,-255 471.2381,-219 564.7619,-219 564.7619,-255"/>
<text text-anchor="middle" x="518" y="-232.8" font-family="Times,serif" font-size="14.00" fill="#000000">DemoModule</text>
</g>
<!-- CommonModule&#45;&gt;DemoModule -->
<g id="edge4" class="edge">
<title>CommonModule&#45;&gt;DemoModule</title>
<path fill="none" stroke="#000000" d="M394.8602,-104C418.2367,-104 440.0775,-104 440.0775,-104 440.0775,-104 440.0775,-231 440.0775,-231 440.0775,-231 460.8745,-231 460.8745,-231"/>
<polygon fill="#000000" stroke="#000000" points="460.8746,-234.5001 470.8745,-231 460.8745,-227.5001 460.8746,-234.5001"/>
</g>
<!-- CloukitDropoutDirective  -->
<g id="node3" class="node">
<title>CloukitDropoutDirective </title>
<polygon fill="#fb8072" stroke="#000000" points="410.2492,-255 249.7508,-255 249.7508,-219 410.2492,-219 410.2492,-255"/>
<text text-anchor="middle" x="330" y="-232.8" font-family="Times,serif" font-size="14.00" fill="#000000">CloukitDropoutDirective </text>
</g>
<!-- CloukitDropoutModule&#45;&gt;CloukitDropoutDirective  -->
<g id="edge2" class="edge">
<title>CloukitDropoutModule&#45;&gt;CloukitDropoutDirective </title>
<path fill="none" stroke="#000000" stroke-dasharray="5,2" d="M325,-190.1061C325,-190.1061 325,-208.991 325,-208.991"/>
<polygon fill="#000000" stroke="#000000" points="321.5001,-208.9909 325,-218.991 328.5001,-208.991 321.5001,-208.9909"/>
</g>
<!-- CloukitDropoutOutletComponent  -->
<g id="node4" class="node">
<title>CloukitDropoutOutletComponent </title>
<polygon fill="#fb8072" stroke="#000000" points="232.4922,-255 23.5078,-255 23.5078,-219 232.4922,-219 232.4922,-255"/>
<text text-anchor="middle" x="128" y="-232.8" font-family="Times,serif" font-size="14.00" fill="#000000">CloukitDropoutOutletComponent </text>
</g>
<!-- CloukitDropoutModule&#45;&gt;CloukitDropoutOutletComponent  -->
<g id="edge3" class="edge">
<title>CloukitDropoutModule&#45;&gt;CloukitDropoutOutletComponent </title>
<path fill="none" stroke="#000000" stroke-dasharray="5,2" d="M250.8035,-172C194.9599,-172 128,-172 128,-172 128,-172 128,-208.8939 128,-208.8939"/>
<polygon fill="#000000" stroke="#000000" points="124.5001,-208.8938 128,-218.8939 131.5001,-208.8939 124.5001,-208.8938"/>
</g>
<!-- CloukitDropoutModule&#45;&gt;DemoModule -->
<g id="edge7" class="edge">
<title>CloukitDropoutModule&#45;&gt;DemoModule</title>
<path fill="none" stroke="#000000" d="M399.3225,-172C414.0654,-172 425.101,-172 425.101,-172 425.101,-172 425.101,-243 425.101,-243 425.101,-243 461.0062,-243 461.0062,-243"/>
<polygon fill="#000000" stroke="#000000" points="461.0062,-246.5001 471.0062,-243 461.0061,-239.5001 461.0062,-246.5001"/>
</g>
<!-- FormsModule -->
<g id="node5" class="node">
<title>FormsModule</title>
<polygon fill="#8dd3c7" stroke="#000000" points="700.8288,-190 697.8288,-194 676.8288,-194 673.8288,-190 605.1712,-190 605.1712,-154 700.8288,-154 700.8288,-190"/>
<text text-anchor="middle" x="653" y="-167.8" font-family="Times,serif" font-size="14.00" fill="#000000">FormsModule</text>
</g>
<!-- FormsModule&#45;&gt;DemoModule -->
<g id="edge5" class="edge">
<title>FormsModule&#45;&gt;DemoModule</title>
<path fill="none" stroke="#000000" d="M653,-190.1061C653,-209.3391 653,-237 653,-237 653,-237 574.8376,-237 574.8376,-237"/>
<polygon fill="#000000" stroke="#000000" points="574.8376,-233.5001 564.8376,-237 574.8375,-240.5001 574.8376,-233.5001"/>
</g>
<!-- CloukitStoryModule -->
<g id="node6" class="node">
<title>CloukitStoryModule</title>
<polygon fill="#8dd3c7" stroke="#000000" points="586.892,-190 583.892,-194 562.892,-194 559.892,-190 455.108,-190 455.108,-154 586.892,-154 586.892,-190"/>
<text text-anchor="middle" x="521" y="-167.8" font-family="Times,serif" font-size="14.00" fill="#000000">CloukitStoryModule</text>
</g>
<!-- CloukitStoryModule&#45;&gt;DemoModule -->
<g id="edge6" class="edge">
<title>CloukitStoryModule&#45;&gt;DemoModule</title>
<path fill="none" stroke="#000000" d="M518,-190.1061C518,-190.1061 518,-208.991 518,-208.991"/>
<polygon fill="#000000" stroke="#000000" points="514.5001,-208.9909 518,-218.991 521.5001,-208.991 514.5001,-208.9909"/>
</g>
<!-- DemoComponent  -->
<g id="node8" class="node">
<title>DemoComponent </title>
<polygon fill="#fb8072" stroke="#000000" points="577.5442,-323 458.4558,-323 458.4558,-287 577.5442,-287 577.5442,-323"/>
<text text-anchor="middle" x="518" y="-300.8" font-family="Times,serif" font-size="14.00" fill="#000000">DemoComponent </text>
</g>
<!-- DemoModule&#45;&gt;DemoComponent  -->
<g id="edge8" class="edge">
<title>DemoModule&#45;&gt;DemoComponent </title>
<path fill="none" stroke="#000000" stroke-dasharray="5,2" d="M518,-255.2228C518,-255.2228 518,-276.7269 518,-276.7269"/>
<polygon fill="#000000" stroke="#000000" points="514.5001,-276.7269 518,-286.7269 521.5001,-276.727 514.5001,-276.7269"/>
</g>
</g>
</svg>
