<?xml version="1.0" encoding="UTF-8" standalone="no"?>
<!DOCTYPE svg PUBLIC "-//W3C//DTD SVG 1.1//EN"
 "http://www.w3.org/Graphics/SVG/1.1/DTD/svg11.dtd">
<!-- Generated by graphviz version 2.40.1 (20161225.0304)
 -->
<!-- Title: dependencies Pages: 1 -->
<svg width="1025pt" height="284pt"
 viewBox="0.00 0.00 1025.00 284.00" xmlns="http://www.w3.org/2000/svg" xmlns:xlink="http://www.w3.org/1999/xlink">
<g id="graph0" class="graph" transform="scale(1 1) rotate(0) translate(4 280)">
<title>dependencies</title>
<polygon fill="#ffffff" stroke="transparent" points="-4,4 -4,-280 1021,-280 1021,4 -4,4"/>
<text text-anchor="start" x="487.5091" y="-42.4" font-family="sans-serif" font-weight="bold" font-size="14.00" fill="#000000">Legend</text>
<polygon fill="#ffffb3" stroke="transparent" points="274.5,-10 274.5,-30 294.5,-30 294.5,-10 274.5,-10"/>
<text text-anchor="start" x="298.129" y="-15.4" font-family="sans-serif" font-size="14.00" fill="#000000"> &#160;Declarations</text>
<polygon fill="#8dd3c7" stroke="transparent" points="387.5,-10 387.5,-30 407.5,-30 407.5,-10 387.5,-10"/>
<text text-anchor="start" x="411.2251" y="-15.4" font-family="sans-serif" font-size="14.00" fill="#000000"> &#160;Module</text>
<polygon fill="#80b1d3" stroke="transparent" points="473.5,-10 473.5,-30 493.5,-30 493.5,-10 473.5,-10"/>
<text text-anchor="start" x="497.2812" y="-15.4" font-family="sans-serif" font-size="14.00" fill="#000000"> &#160;Bootstrap</text>
<polygon fill="#fdb462" stroke="transparent" points="570.5,-10 570.5,-30 590.5,-30 590.5,-10 570.5,-10"/>
<text text-anchor="start" x="594.1732" y="-15.4" font-family="sans-serif" font-size="14.00" fill="#000000"> &#160;Providers</text>
<polygon fill="#fb8072" stroke="transparent" points="666.5,-10 666.5,-30 686.5,-30 686.5,-10 666.5,-10"/>
<text text-anchor="start" x="690.2258" y="-15.4" font-family="sans-serif" font-size="14.00" fill="#000000"> &#160;Exports</text>
<g id="clust1" class="cluster">
<title>cluster_DemoModule</title>
<polygon fill="none" stroke="#000000" stroke-dasharray="1,5" points="8,-70 8,-268 1009,-268 1009,-70 8,-70"/>
</g>
<g id="clust2" class="cluster">
<title>cluster_DemoModule_declarations</title>
<polygon fill="none" stroke="#000000" points="581,-78 581,-130 1001,-130 1001,-78 581,-78"/>
</g>
<g id="clust6" class="cluster">
<title>cluster_DemoModule_imports</title>
<polygon fill="none" stroke="#000000" points="16,-78 16,-130 573,-130 573,-78 16,-78"/>
</g>
<g id="clust7" class="cluster">
<title>cluster_DemoModule_exports</title>
<polygon fill="none" stroke="#000000" points="441,-208 441,-260 577,-260 577,-208 441,-208"/>
</g>
<!-- DemoComponent -->
<g id="node1" class="node">
<title>DemoComponent</title>
<polygon fill="#ffffb3" stroke="#000000" points="992.5451,-122 877.4549,-122 877.4549,-86 992.5451,-86 992.5451,-122"/>
<text text-anchor="middle" x="935" y="-99.8" font-family="Times,serif" font-size="14.00" fill="#000000">DemoComponent</text>
</g>
<!-- DemoModule -->
<g id="node4" class="node">
<title>DemoModule</title>
<polygon fill="#8dd3c7" stroke="#000000" points="555.7619,-187 552.7619,-191 531.7619,-191 528.7619,-187 462.2381,-187 462.2381,-151 555.7619,-151 555.7619,-187"/>
<text text-anchor="middle" x="509" y="-164.8" font-family="Times,serif" font-size="14.00" fill="#000000">DemoModule</text>
</g>
<!-- DemoComponent&#45;&gt;DemoModule -->
<g id="edge1" class="edge">
<title>DemoComponent&#45;&gt;DemoModule</title>
<path fill="none" stroke="#000000" d="M935,-122.2921C935,-144.2057 935,-178 935,-178 935,-178 565.808,-178 565.808,-178"/>
<polygon fill="#000000" stroke="#000000" points="565.8081,-174.5001 555.808,-178 565.808,-181.5001 565.8081,-174.5001"/>
</g>
<!-- Story00Component -->
<g id="node2" class="node">
<title>Story00Component</title>
<polygon fill="#ffffb3" stroke="#000000" points="858.6666,-122 733.3334,-122 733.3334,-86 858.6666,-86 858.6666,-122"/>
<text text-anchor="middle" x="796" y="-99.8" font-family="Times,serif" font-size="14.00" fill="#000000">Story00Component</text>
</g>
<!-- Story00Component&#45;&gt;DemoModule -->
<g id="edge2" class="edge">
<title>Story00Component&#45;&gt;DemoModule</title>
<path fill="none" stroke="#000000" d="M796,-122.1061C796,-141.3391 796,-169 796,-169 796,-169 566.0708,-169 566.0708,-169"/>
<polygon fill="#000000" stroke="#000000" points="566.0709,-165.5001 556.0708,-169 566.0708,-172.5001 566.0709,-165.5001"/>
</g>
<!-- Story01Component -->
<g id="node3" class="node">
<title>Story01Component</title>
<polygon fill="#ffffb3" stroke="#000000" points="714.6666,-122 589.3334,-122 589.3334,-86 714.6666,-86 714.6666,-122"/>
<text text-anchor="middle" x="652" y="-99.8" font-family="Times,serif" font-size="14.00" fill="#000000">Story01Component</text>
</g>
<!-- Story01Component&#45;&gt;DemoModule -->
<g id="edge3" class="edge">
<title>Story01Component&#45;&gt;DemoModule</title>
<path fill="none" stroke="#000000" d="M652,-122.027C652,-138.3976 652,-160 652,-160 652,-160 565.8235,-160 565.8235,-160"/>
<polygon fill="#000000" stroke="#000000" points="565.8236,-156.5001 555.8235,-160 565.8235,-163.5001 565.8236,-156.5001"/>
</g>
<!-- DemoComponent  -->
<g id="node9" class="node">
<title>DemoComponent </title>
<polygon fill="#fb8072" stroke="#000000" points="568.5442,-252 449.4558,-252 449.4558,-216 568.5442,-216 568.5442,-252"/>
<text text-anchor="middle" x="509" y="-229.8" font-family="Times,serif" font-size="14.00" fill="#000000">DemoComponent </text>
</g>
<!-- DemoModule&#45;&gt;DemoComponent  -->
<g id="edge8" class="edge">
<title>DemoModule&#45;&gt;DemoComponent </title>
<path fill="none" stroke="#000000" stroke-dasharray="5,2" d="M509,-187.1061C509,-187.1061 509,-205.991 509,-205.991"/>
<polygon fill="#000000" stroke="#000000" points="505.5001,-205.9909 509,-215.991 512.5001,-205.991 505.5001,-205.9909"/>
</g>
<!-- CommonModule -->
<g id="node5" class="node">
<title>CommonModule</title>
<polygon fill="#8dd3c7" stroke="#000000" points="564.6681,-122 561.6681,-126 540.6681,-126 537.6681,-122 453.3319,-122 453.3319,-86 564.6681,-86 564.6681,-122"/>
<text text-anchor="middle" x="509" y="-99.8" font-family="Times,serif" font-size="14.00" fill="#000000">CommonModule</text>
</g>
<!-- CommonModule&#45;&gt;DemoModule -->
<g id="edge4" class="edge">
<title>CommonModule&#45;&gt;DemoModule</title>
<path fill="none" stroke="#000000" d="M509,-122.1061C509,-122.1061 509,-140.991 509,-140.991"/>
<polygon fill="#000000" stroke="#000000" points="505.5001,-140.9909 509,-150.991 512.5001,-140.991 505.5001,-140.9909"/>
</g>
<!-- FormsModule -->
<g id="node6" class="node">
<title>FormsModule</title>
<polygon fill="#8dd3c7" stroke="#000000" points="435.8288,-122 432.8288,-126 411.8288,-126 408.8288,-122 340.1712,-122 340.1712,-86 435.8288,-86 435.8288,-122"/>
<text text-anchor="middle" x="388" y="-99.8" font-family="Times,serif" font-size="14.00" fill="#000000">FormsModule</text>
</g>
<!-- FormsModule&#45;&gt;DemoModule -->
<g id="edge5" class="edge">
<title>FormsModule&#45;&gt;DemoModule</title>
<path fill="none" stroke="#000000" d="M388,-122.027C388,-138.3976 388,-160 388,-160 388,-160 452.2182,-160 452.2182,-160"/>
<polygon fill="#000000" stroke="#000000" points="452.2183,-163.5001 462.2182,-160 452.2182,-156.5001 452.2183,-163.5001"/>
</g>
<!-- CloukitStoryModule -->
<g id="node7" class="node">
<title>CloukitStoryModule</title>
<polygon fill="#8dd3c7" stroke="#000000" points="321.892,-122 318.892,-126 297.892,-126 294.892,-122 190.108,-122 190.108,-86 321.892,-86 321.892,-122"/>
<text text-anchor="middle" x="256" y="-99.8" font-family="Times,serif" font-size="14.00" fill="#000000">CloukitStoryModule</text>
</g>
<!-- CloukitStoryModule&#45;&gt;DemoModule -->
<g id="edge6" class="edge">
<title>CloukitStoryModule&#45;&gt;DemoModule</title>
<path fill="none" stroke="#000000" d="M256,-122.1061C256,-141.3391 256,-169 256,-169 256,-169 452.0056,-169 452.0056,-169"/>
<polygon fill="#000000" stroke="#000000" points="452.0056,-172.5001 462.0056,-169 452.0055,-165.5001 452.0056,-172.5001"/>
</g>
<!-- CloukitDropoutModule -->
<g id="node8" class="node">
<title>CloukitDropoutModule</title>
<polygon fill="#8dd3c7" stroke="#000000" points="172.2162,-122 169.2162,-126 148.2162,-126 145.2162,-122 23.7838,-122 23.7838,-86 172.2162,-86 172.2162,-122"/>
<text text-anchor="middle" x="98" y="-99.8" font-family="Times,serif" font-size="14.00" fill="#000000">CloukitDropoutModule</text>
</g>
<!-- CloukitDropoutModule&#45;&gt;DemoModule -->
<g id="edge7" class="edge">
<title>CloukitDropoutModule&#45;&gt;DemoModule</title>
<path fill="none" stroke="#000000" d="M98,-122.2921C98,-144.2057 98,-178 98,-178 98,-178 451.8531,-178 451.8531,-178"/>
<polygon fill="#000000" stroke="#000000" points="451.8531,-181.5001 461.8531,-178 451.853,-174.5001 451.8531,-181.5001"/>
</g>
</g>
</svg>
